<svg width="33" height="32" viewBox="0 0 33 32" fill="none" xmlns="http://www.w3.org/2000/svg">
<path d="M30.9102 16C30.9102 24.8366 23.7467 32 14.9102 32C6.0736 32 1.41016 27.3366 1.41016 18.5C1.41016 9.66344 11.0736 0 19.9102 0C28.7467 0 30.9102 7.16344 30.9102 16Z" fill="#1E8025" fill-opacity="0.15"/>
<g clip-path="url(#clip0_4880_97)">
<path fill-rule="evenodd" clip-rule="evenodd" d="M7.32876 9.76813C6.60951 9.76813 6.02644 10.3512 6.02644 11.0705V21.2364C6.02644 21.9557 6.60951 22.5388 7.32876 22.5388H26.4915C27.2108 22.5388 27.7939 21.9557 27.7939 21.2364V11.0705C27.7939 10.3512 27.2108 9.76813 26.4915 9.76813H24.9393C24.6311 9.76813 24.3812 9.51824 24.3812 9.20999C24.3812 8.90174 24.6311 8.65186 24.9393 8.65186H26.4915C27.8273 8.65186 28.9102 9.73471 28.9102 11.0705V21.2364C28.9102 22.5722 27.8273 23.655 26.4915 23.655H7.32876C5.993 23.655 4.91016 22.5722 4.91016 21.2364V11.0705C4.91016 9.73471 5.993 8.65186 7.32876 8.65186H8.881C9.18926 8.65186 9.43914 8.90174 9.43914 9.20999C9.43914 9.51824 9.18926 9.76813 8.881 9.76813H7.32876Z" fill="#1E8025"/>
<path fill-rule="evenodd" clip-rule="evenodd" d="M18.4918 23.7681H14.4918V26.5123H18.4918V23.7681ZM13.3755 22.6519V27.6286H19.608V22.6519H13.3755Z" fill="#1E8025"/>
<path fill-rule="evenodd" clip-rule="evenodd" d="M8.59424 27.1636C8.59424 26.8554 8.84412 26.6055 9.15237 26.6055H23.9061C24.2143 26.6055 24.4642 26.8554 24.4642 27.1636C24.4642 27.4719 24.2143 27.7218 23.9061 27.7218H9.15237C8.84412 27.7218 8.59424 27.4719 8.59424 27.1636Z" fill="#1E8025"/>
<path fill-rule="evenodd" clip-rule="evenodd" d="M20.0435 5.2145C21.2829 6.09137 22.3027 7.55639 22.3667 9.82083C22.406 11.2093 21.8629 12.6336 21.1346 13.9705C20.4059 15.3082 19.453 16.6256 18.5993 17.806L18.5887 17.8206C18.0269 18.5974 17.5117 19.3101 17.1098 19.9515C16.8558 20.3568 16.2658 20.3608 16.0079 19.9553C15.6216 19.348 15.1307 18.6675 14.5935 17.9232L14.5838 17.9097C13.7266 16.722 12.7609 15.3839 12.0109 14.0256C11.2622 12.6696 10.6899 11.2273 10.6899 9.83658C10.6899 8.57889 11.0978 7.17291 12.0464 6.05998C13.0066 4.9334 14.4877 4.14697 16.5441 4.09501M20.0435 5.2145C18.8314 4.35694 17.4274 4.07221 16.5442 4.095L20.0435 5.2145ZM19.3988 6.12577C18.403 5.42131 17.2408 5.19361 16.5727 5.21092L16.5723 5.21092C14.8102 5.25543 13.6362 5.91558 12.896 6.78408C12.1441 7.66625 11.8062 8.80388 11.8062 9.83658C11.8062 10.9433 12.2695 12.1846 12.9881 13.486C13.7026 14.7801 14.6314 16.0682 15.4987 17.2699L15.5057 17.2796C15.8747 17.7909 16.2341 18.2888 16.5554 18.7598C16.8976 18.2541 17.2828 17.7215 17.6765 17.1771L17.6842 17.1664C18.5491 15.9706 19.4627 14.7061 20.1543 13.4365C20.8494 12.1605 21.2818 10.9463 21.2509 9.85238C21.1973 7.95794 20.3674 6.81105 19.3988 6.12577ZM16.5188 8.2368C15.5917 8.2368 14.8305 8.99757 14.8305 9.948C14.8305 10.8984 15.5917 11.6592 16.5188 11.6592C17.4458 11.6592 18.207 10.8984 18.207 9.948C18.207 8.99757 17.4458 8.2368 16.5188 8.2368ZM13.7142 9.948C13.7142 8.39178 14.9645 7.12052 16.5188 7.12052C18.073 7.12052 19.3232 8.39178 19.3232 9.948C19.3232 11.5042 18.073 12.7755 16.5188 12.7755C14.9645 12.7755 13.7142 11.5042 13.7142 9.948Z" fill="#1E8025"/>
</g>
<defs>
<clipPath id="clip0_4880_97">
<rect width="24" height="24" fill="white" transform="translate(4.91016 4)"/>
</clipPath>
</defs>
</svg>
