<svg width="22" height="20" viewBox="0 0 22 20" fill="none" xmlns="http://www.w3.org/2000/svg">
<path d="M9.44601 10.9268C8.06117 9.05928 6.76758 7.12793 6.76758 7.12793C6.76758 7.12793 9.47571 8.17888 11.3909 9.05379C13.3061 9.92869 10.8309 12.7944 9.44601 10.9268Z" fill="#59687D"/>
<path d="M21.6834 19.9417H19.8646V19.5089L20.6929 18.7848C20.7914 18.7002 20.8638 18.6175 20.9101 18.5367C20.9584 18.4559 20.9825 18.3973 20.9825 18.3607C20.9825 18.2934 20.9613 18.2405 20.9188 18.2021C20.8783 18.1636 20.8175 18.1444 20.7364 18.1444C20.6437 18.1444 20.5742 18.1742 20.5278 18.2338C20.4815 18.2934 20.4583 18.3617 20.4583 18.4386H19.8125C19.8125 18.2905 19.8492 18.1559 19.9226 18.0347C19.9959 17.9117 20.0992 17.8136 20.2324 17.7405C20.3657 17.6674 20.523 17.6309 20.7045 17.6309C20.998 17.6309 21.2249 17.6943 21.3851 17.8213C21.5454 17.9463 21.6255 18.1261 21.6255 18.3607C21.6255 18.4761 21.6023 18.579 21.556 18.6694C21.5096 18.7598 21.4382 18.8492 21.3417 18.9377C21.2451 19.0281 21.1216 19.1291 20.971 19.2406L20.7161 19.431H21.6834V19.9417Z" fill="#484C56"/>
<path d="M19.4429 16.8784C19.4429 17.3092 19.3647 17.6804 19.2083 17.9919C19.0539 18.3016 18.8386 18.5401 18.5625 18.7074C18.2883 18.8747 17.9726 18.9584 17.6155 18.9584C17.2583 18.9584 16.9407 18.8747 16.6626 18.7074C16.3865 18.5401 16.1703 18.3016 16.0139 17.9919C15.8575 17.6804 15.7793 17.3092 15.7793 16.8784V16.7255C15.7793 16.2947 15.8565 15.9244 16.011 15.6148C16.1674 15.3032 16.3836 15.0638 16.6597 14.8964C16.9358 14.7272 17.2525 14.6426 17.6097 14.6426C17.9669 14.6426 18.2835 14.7272 18.5596 14.8964C18.8357 15.0638 19.0519 15.3032 19.2083 15.6148C19.3647 15.9244 19.4429 16.2947 19.4429 16.7255V16.8784ZM18.4466 16.7197C18.4466 16.4408 18.4138 16.2071 18.3482 16.0187C18.2845 15.8283 18.1899 15.685 18.0644 15.5888C17.9389 15.4927 17.7873 15.4446 17.6097 15.4446C17.4282 15.4446 17.2756 15.4927 17.1521 15.5888C17.0285 15.685 16.9349 15.8283 16.8711 16.0187C16.8074 16.2071 16.7756 16.4408 16.7756 16.7197V16.8784C16.7756 17.1534 16.8074 17.3861 16.8711 17.5765C16.9368 17.7669 17.0314 17.9121 17.155 18.0121C17.2805 18.1102 17.434 18.1593 17.6155 18.1593C17.7931 18.1593 17.9437 18.1102 18.0673 18.0121C18.1928 17.9121 18.2874 17.7669 18.3511 17.5765C18.4148 17.3861 18.4466 17.1534 18.4466 16.8784V16.7197Z" fill="#484C56"/>
<path d="M15.394 17.4784C15.3785 17.7669 15.2993 18.0227 15.1565 18.2458C15.0155 18.4688 14.8186 18.6439 14.5657 18.7708C14.3127 18.8958 14.0115 18.9583 13.6621 18.9583C13.2914 18.9583 12.9728 18.8756 12.7063 18.7102C12.4418 18.5448 12.2391 18.3092 12.0981 18.0034C11.9572 17.6976 11.8867 17.3341 11.8867 16.9129V16.6908C11.8867 16.2677 11.9601 15.9032 12.1068 15.5974C12.2536 15.2916 12.4592 15.056 12.7237 14.8906C12.9882 14.7233 13.3 14.6396 13.6592 14.6396C14.0221 14.6396 14.3282 14.706 14.5772 14.8387C14.8263 14.9695 15.0184 15.1493 15.1536 15.3782C15.2907 15.6051 15.3718 15.8638 15.3969 16.1542H14.418C14.4064 15.9196 14.3446 15.7426 14.2326 15.6234C14.1225 15.5022 13.9314 15.4416 13.6592 15.4416C13.4835 15.4416 13.3377 15.484 13.2218 15.5686C13.1079 15.6513 13.023 15.784 12.967 15.9667C12.911 16.1494 12.883 16.3888 12.883 16.685V16.9129C12.883 17.2053 12.9081 17.4438 12.9583 17.6284C13.0085 17.8111 13.0906 17.9448 13.2045 18.0294C13.3184 18.114 13.4709 18.1563 13.6621 18.1563C13.8262 18.1563 13.9623 18.1323 14.0704 18.0842C14.1785 18.0361 14.2606 17.9621 14.3166 17.8621C14.3745 17.7601 14.4073 17.6322 14.4151 17.4784H15.394Z" fill="#484C56"/>
<path d="M10.3154 0.191406C15.6264 0.191515 19.9372 4.48093 19.9375 9.77832C19.9375 11.0765 19.677 12.3135 19.208 13.4424C18.6987 13.368 18.1672 13.3252 17.6201 13.3164C18.1434 12.2473 18.4375 11.047 18.4375 9.77832C18.4372 5.31486 14.8035 1.69151 10.3154 1.69141C5.82747 1.69164 2.19365 5.31494 2.19336 9.77832C2.19336 14.2419 5.82729 17.866 10.3154 17.8662C10.3401 17.8662 10.3651 17.8645 10.3896 17.8643C10.5248 18.3882 10.8422 18.8785 11.3047 19.3154C10.9796 19.3485 10.6493 19.3662 10.3154 19.3662C5.00438 19.366 0.693359 15.0759 0.693359 9.77832C0.693654 4.48101 5.00456 0.191641 10.3154 0.191406Z" fill="#484C56"/>
</svg>
