<svg width="28" height="28" viewBox="0 0 28 28" fill="none" xmlns="http://www.w3.org/2000/svg">
<path d="M9.36523 7.65845H9.36564" stroke="#59687D" stroke-miterlimit="2.6131" stroke-linecap="round" stroke-linejoin="round"/>
<path d="M13.9629 7.39434V2.32113C13.9629 1.59451 14.5574 1 15.284 1H25.5889C26.3155 1 26.91 1.59451 26.91 2.32113V8.9268C26.91 9.65342 26.3155 10.2479 25.5889 10.2479H21.6255V12.4675L18.9832 10.2479H18.0848" stroke="#59687D" stroke-miterlimit="2.6131" stroke-linecap="round" stroke-linejoin="round"/>
<path d="M16.4731 4.56714H24.3999M24.3999 6.68095H21.3745" stroke="#59687D" stroke-miterlimit="2.6131" stroke-linecap="round" stroke-linejoin="round"/>
<path d="M17.8207 14.317V10.2478V8.97958C17.8207 8.25296 17.2261 7.65845 16.4995 7.65845H13.963H11.7436M6.98758 7.65845H2.23129C1.50467 7.65845 0.910156 8.25296 0.910156 8.97958V19.5486C0.910156 20.2753 1.50467 20.8698 2.23129 20.8698H8.04427V23.512L10.6865 20.8698H14.6261" stroke="#59687D" stroke-miterlimit="2.6131" stroke-linecap="round" stroke-linejoin="round"/>
<path fill-rule="evenodd" clip-rule="evenodd" d="M16.2113 14.5813H25.5889C26.3155 14.5813 26.91 15.176 26.91 15.9024V23.0365C26.91 23.7631 26.3155 24.3577 25.5889 24.3577H22.0891V26.9999L19.4468 24.3577H16.2113C15.4849 24.3577 14.8901 23.7632 14.8901 23.0365V15.9024C14.8901 15.1758 15.4846 14.5813 16.2113 14.5813Z" stroke="#59687D" stroke-miterlimit="2.6131" stroke-linecap="round" stroke-linejoin="round"/>
<path d="M19.5271 19.9031L18.9185 19.4695L18.4849 20.0782" stroke="#59687D" stroke-miterlimit="22.9256" stroke-linecap="round" stroke-linejoin="round"/>
<path d="M20.1074 17.4102C20.4689 17.2014 20.879 17.0916 21.2964 17.0916C22.5745 17.0916 23.6239 18.1017 23.6727 19.3787" stroke="#59687D" stroke-miterlimit="2.6131" stroke-linecap="round" stroke-linejoin="round"/>
<path d="M23.0659 19.0359L23.6746 19.4696L24.1082 18.8608" stroke="#59687D" stroke-miterlimit="22.9256" stroke-linecap="round" stroke-linejoin="round"/>
<path d="M22.4856 21.5288C22.1241 21.7376 21.714 21.8474 21.2966 21.8474C19.9992 21.8474 18.9412 20.8075 18.9189 19.5103" stroke="#59687D" stroke-miterlimit="2.6131" stroke-linecap="round" stroke-linejoin="round"/>
<path d="M7.91824 12.2835C7.84912 11.9498 7.98087 11.4784 8.4124 11.1494C9.06398 10.6474 10.0191 10.7681 10.521 11.4198C11.023 12.0713 10.9006 13.0151 10.249 13.517L9.90206 13.7843L9.55507 14.0516C9.04602 14.4346 8.97341 14.9327 8.99069 15.6331" stroke="#59687D" stroke-miterlimit="2.6131" stroke-linecap="round" stroke-linejoin="round"/>
<path d="M8.99023 17.689H8.99064" stroke="#59687D" stroke-miterlimit="2.6131" stroke-linecap="round" stroke-linejoin="round"/>
</svg>
