<svg width="24" height="25" viewBox="0 0 24 25" fill="none" xmlns="http://www.w3.org/2000/svg">
<path d="M8.12691 19.4933C8.45828 19.4933 8.72691 19.2246 8.72691 18.8933C8.72691 18.5619 8.45828 18.2933 8.12691 18.2933V19.4933ZM7.82176 8.96359C7.74988 8.64011 7.42937 8.43615 7.10589 8.50804L1.83448 9.67946C1.511 9.75135 1.30704 10.0719 1.37893 10.3953C1.45081 10.7188 1.77132 10.9228 2.0948 10.8509L6.7805 9.80962L7.82176 14.4953C7.89365 14.8188 8.21415 15.0228 8.53763 14.9509C8.86111 14.879 9.06507 14.5585 8.99319 14.235L7.82176 8.96359ZM8.12691 18.2933H3.73251V19.4933H8.12691V18.2933ZM2.97321 16.9101L7.74225 9.41588L6.72985 8.77162L1.96082 16.2658L2.97321 16.9101ZM3.73251 18.2933C3.02233 18.2933 2.59194 17.5092 2.97321 16.9101L1.96082 16.2658C1.07117 17.6638 2.07542 19.4933 3.73251 19.4933V18.2933Z" fill="#484C56"/>
<path d="M9.9637 18.6908C9.72941 18.9252 9.72943 19.3051 9.96376 19.5394L13.7824 23.3575C14.0167 23.5918 14.3966 23.5918 14.6309 23.3574C14.8652 23.1231 14.8652 22.7432 14.6309 22.5089L11.2365 19.115L14.6304 15.7207C14.8647 15.4864 14.8647 15.1065 14.6304 14.8722C14.396 14.6379 14.0161 14.6379 13.7818 14.8722L9.9637 18.6908ZM17.6706 13.424L20.0301 17.1313L21.0424 16.4869L18.683 12.7797L17.6706 13.424ZM19.2709 18.5145L10.388 18.5151L10.388 19.7151L19.271 19.7145L19.2709 18.5145ZM20.0301 17.1313C20.4114 17.7304 19.9811 18.5144 19.2709 18.5145L19.271 19.7145C20.9281 19.7144 21.9322 17.8849 21.0424 16.4869L20.0301 17.1313Z" fill="#484C56"/>
<path d="M8.50195 6.9997L10.3093 3.73972C10.8625 2.74193 12.2829 2.70246 12.8906 3.66799L15.0012 7.02118" stroke="#484C56" stroke-width="1.2" stroke-linecap="round"/>
<circle cx="16.5907" cy="9.98424" r="3.11802" stroke="#59687D" stroke-width="1.2"/>
</svg>
