<svg width="27" height="26" viewBox="0 0 27 26" fill="none" xmlns="http://www.w3.org/2000/svg">
<g clip-path="url(#clip0_4880_20629)">
<path fill-rule="evenodd" clip-rule="evenodd" d="M3.52875 15.1202L3.91675 8.39705C3.91008 8.37491 3.90635 8.35117 3.90635 8.3269C3.90635 8.29249 3.91355 8.25969 3.92635 8.23008L3.99328 7.06986C4.00048 6.93997 4.10822 6.83915 4.23675 6.83942L5.63702 6.83888C5.77169 6.83888 5.87809 6.9429 5.88155 7.08586L5.94795 8.23755C5.97302 8.35197 5.96742 8.28369 5.95675 8.38931L6.34476 15.1202H6.62689L10.3714 11.8004C10.5584 11.6347 10.8482 11.7718 10.8482 12.0164V14.8228L14.2571 11.8004C14.444 11.6347 14.7339 11.7716 14.7339 12.0164V14.8225L18.14 11.8004V9.3791H17.7128C17.5779 9.3791 17.4683 9.26974 17.4683 9.13452V7.48914C17.4683 7.35418 17.5776 7.24483 17.7128 7.24483H25.6656C25.8006 7.24483 25.9102 7.35418 25.9102 7.48914V9.13452C25.9102 9.26948 25.8008 9.3791 25.6656 9.3791H25.2384V23.7554C25.2384 23.896 25.1262 24.0056 24.9726 23.9989H18.3968C18.3896 23.9995 18.3824 24 18.3752 24H3.07621C2.94128 24 2.83194 23.8906 2.83194 23.7554V15.409C2.83194 15.2519 2.96101 15.1202 3.11941 15.1202H3.52875ZM4.93702 5.45862C5.21115 5.45862 5.43302 5.6808 5.43302 5.95472C5.43302 6.2289 5.21089 6.45108 4.93702 6.45108C4.66288 6.45108 4.44075 6.2289 4.44075 5.95472C4.44075 5.68106 4.66288 5.45862 4.93702 5.45862ZM4.08262 5.19671C3.96928 5.31246 3.78368 5.3146 3.66795 5.20124C3.55221 5.08789 3.55008 4.90225 3.66341 4.7865C4.36475 4.06903 5.51062 4.07036 6.21062 4.78916C6.32316 4.90492 6.32076 5.09002 6.20476 5.20284C6.08902 5.3154 5.90395 5.313 5.79115 5.19697C5.31435 4.71315 4.55835 4.70995 4.08262 5.19671ZM3.24795 4.43416C4.18102 3.47638 5.69569 3.47878 6.62742 4.43603C6.73996 4.55178 6.92529 4.55445 7.04103 4.44163C7.15676 4.32908 7.15943 4.14371 7.04689 4.02795C5.88955 2.83839 4.01062 2.82906 2.82874 4.02395C2.71541 4.13971 2.71754 4.32534 2.83328 4.4387C2.94874 4.55205 3.13461 4.55018 3.24795 4.43416ZM2.41301 3.65508C2.29968 3.77084 2.11408 3.77297 1.99834 3.65962C1.88261 3.54626 1.88047 3.36063 1.99381 3.24487C3.61835 1.58402 6.26076 1.58429 7.88263 3.2502C7.99516 3.36596 7.99276 3.55133 7.87703 3.66388C7.76129 3.77644 7.57623 3.77404 7.46343 3.65828C6.07329 2.23081 3.82288 2.22094 2.41301 3.65508ZM19.5709 15.0236C19.436 15.0236 19.3264 15.133 19.3264 15.2679L19.3264 17.5596C19.3264 17.6945 19.4357 17.8039 19.5709 17.8039H23.8075C23.9424 17.8039 24.0518 17.6945 24.0518 17.5596L24.0517 15.2679C24.0517 15.133 23.9424 15.0236 23.8075 15.0236H19.5709ZM23.5629 15.5125H19.8152L19.8152 17.3153H23.5629L23.5629 15.5125ZM19.5709 11.0973C19.436 11.0973 19.3264 11.2066 19.3264 11.3416L19.3264 13.4615C19.3264 13.5965 19.4357 13.7058 19.5709 13.7058H23.8075C23.9424 13.7058 24.0517 13.5965 24.0517 13.4615L24.0518 11.3416C24.0518 11.2066 23.9424 11.0973 23.8075 11.0973H19.5709ZM23.5629 11.5862H19.8152L19.8152 13.2172H23.5629L23.5629 11.5862ZM13.593 18.8903C13.4581 18.8903 13.3485 18.9997 13.3485 19.1349L13.3485 20.9333C13.3485 21.0683 13.4578 21.1779 13.593 21.1779H16.3901C16.5251 21.1779 16.6344 21.0685 16.6344 20.9333L16.6344 19.1349C16.6344 19 16.5251 18.8903 16.3901 18.8903H13.593ZM16.1459 19.3792H13.8376L13.8376 20.689H16.1459L16.1459 19.3792ZM9.32716 18.8903C9.19223 18.8903 9.0829 18.9997 9.0829 19.1349L9.0829 20.9333C9.0829 21.0683 9.19223 21.1779 9.32717 21.1779H12.1245C12.2594 21.1779 12.369 21.0685 12.369 20.9333L12.369 19.1349C12.369 19 12.2597 18.8903 12.1245 18.8903H9.32716ZM11.88 19.3792H9.5717L9.5717 20.689H11.88L11.88 19.3792ZM5.06128 18.8903C4.92635 18.8903 4.81675 18.9997 4.81675 19.1349L4.81675 20.9333C4.81675 21.0683 4.92635 21.1779 5.06128 21.1779H7.85863C7.99356 21.1779 8.10289 21.0685 8.10289 20.9333L8.10289 19.1349C8.10289 19 7.99356 18.8903 7.85863 18.8903H5.06128ZM7.61409 19.3792H5.30582L5.30582 20.689H7.61409L7.61409 19.3792ZM20.1035 23.5116V19.7669C20.1035 19.632 20.2128 19.5226 20.3477 19.5226H23.0301C23.1651 19.5226 23.2747 19.632 23.2747 19.7669V23.5116H24.7494V9.37883H18.6288V23.5116H20.1035ZM22.7859 23.5116V20.0115H20.5923V23.5119L22.7859 23.5116ZM25.4214 7.73345H17.9573V8.88994H25.4214V7.73345ZM5.85622 15.1202L5.47835 8.57121H4.39462L4.01728 15.1202H5.85622ZM18.14 12.4511L14.7219 15.484C14.5349 15.6499 14.2451 15.5125 14.2451 15.2679V12.4618L10.8362 15.484C10.6488 15.6502 10.3594 15.512 10.3594 15.2679V12.4618L6.89142 15.5363C6.83782 15.5837 6.77249 15.6091 6.70209 15.6091H3.32075V23.5106H18.14V12.4511ZM4.46662 7.32778L4.42315 8.08232H5.45035L5.40689 7.32778H4.46662Z" fill="#59687D" stroke="#59687D" stroke-width="0.35"/>
</g>
<defs>
<clipPath id="clip0_4880_20629">
<rect width="26" height="26" fill="white" transform="translate(0.910156)"/>
</clipPath>
</defs>
</svg>
