<svg width="19" height="18" viewBox="0 0 19 18" fill="none" xmlns="http://www.w3.org/2000/svg">
<path d="M8.98232 15.3869C9.30058 15.1944 9.69942 15.1944 10.0177 15.3869L13.9598 17.7722C14.7168 18.2302 15.652 17.5518 15.4514 16.69L14.4035 12.1867C14.3195 11.8258 14.442 11.448 14.7218 11.205L18.2141 8.17202C18.8815 7.59244 18.5239 6.49551 17.6432 6.4206L13.0518 6.03009C12.682 5.99864 12.36 5.76495 12.2155 5.42309L10.4211 1.17864C10.0769 0.364513 8.92312 0.364511 8.57893 1.17864L6.7845 5.42309C6.63997 5.76495 6.318 5.99864 5.94818 6.03009L1.35682 6.4206C0.476101 6.49551 0.118499 7.59244 0.785854 8.17202L4.27821 11.205C4.55798 11.448 4.68046 11.8258 4.59648 12.1867L3.54855 16.69C3.34801 17.5518 4.28318 18.2302 5.04021 17.7722L8.98232 15.3869Z" fill="#E9C863"/>
</svg>
