<svg width="33" height="33" viewBox="0 0 33 33" fill="none" xmlns="http://www.w3.org/2000/svg">
<g clip-path="url(#clip0_4503_10964)">
<path d="M24.2459 28.5843H9.41579C9.1448 28.5843 8.92578 28.3652 8.92578 28.0943C8.92578 27.8233 9.1448 27.6042 9.41579 27.6042H24.2459C24.5169 27.6042 24.7359 27.8233 24.7359 28.0943C24.7359 28.3652 24.5169 28.5843 24.2459 28.5843Z" fill="#59687D"/>
<path d="M29.4573 15.8442C29.4926 15.7329 29.4889 15.6104 29.4351 15.4972L25.6635 7.54013C25.5837 7.37308 25.4167 7.27285 25.231 7.271C25.0473 7.27285 24.8821 7.38236 24.8079 7.55126L21.2869 15.5083C21.2553 15.5807 21.2423 15.6549 21.2479 15.7292C21.1755 15.8127 21.1328 15.9203 21.1328 16.0391C21.1328 18.3444 23.0093 20.2209 25.3164 20.2209C27.6235 20.2209 29.5 18.3444 29.5 16.0391C29.5 15.9705 29.4852 15.9036 29.4573 15.8442ZM25.2533 8.87094L28.4272 15.5677H22.291L25.2533 8.87094ZM25.3164 19.2798C23.6886 19.2798 22.3374 18.0752 22.1091 16.5087H28.5237C28.2954 18.0752 26.9442 19.2798 25.3164 19.2798Z" fill="#59687D"/>
<path d="M11.8245 15.7662C11.8598 15.6567 11.8561 15.5323 11.8023 15.421L8.0307 7.4621C7.95089 7.29505 7.78941 7.18925 7.59823 7.19297C7.41448 7.19482 7.24929 7.30433 7.17504 7.47323L3.65405 15.4321C3.6225 15.5026 3.60951 15.5787 3.61508 15.6511C3.54269 15.7347 3.5 15.8423 3.5 15.9611C3.5 18.2682 5.3765 20.1447 7.68361 20.1447C9.99072 20.1447 11.8672 18.2682 11.8672 15.9611C11.8672 15.8924 11.8524 15.8256 11.8245 15.7662ZM7.6205 8.79291L10.7944 15.4897H4.6582L7.6205 8.79291ZM7.68361 19.2018C6.05583 19.2018 4.7046 17.9972 4.4763 16.4325H10.8909C10.6626 17.9972 9.31139 19.2018 7.68361 19.2018Z" fill="#59687D"/>
<path d="M27.2659 6.24631C27.2659 6.50245 27.0581 6.71033 26.8019 6.71033H18.5424C18.4254 7.27644 18.0412 7.74603 17.5271 7.97804V25.6182C17.5271 25.6646 17.5234 25.7092 17.5141 25.7537H22.0337C22.3028 25.7537 22.5218 25.9728 22.5218 26.2437C22.5218 26.5147 22.3028 26.7337 22.0337 26.7337H11.7936C11.5227 26.7337 11.3036 26.5147 11.3036 26.2437C11.3036 25.9728 11.5227 25.7537 11.7936 25.7537H16.0515C16.0422 25.7092 16.0385 25.6646 16.0385 25.6182V7.97989C15.5244 7.74603 15.1383 7.27644 15.0214 6.71033H6.66715C6.40915 6.71033 6.20312 6.50245 6.20312 6.24631C6.20312 5.99017 6.40915 5.78229 6.66715 5.78229H15.0752C15.3109 5.06399 15.9865 4.54614 16.7828 4.54614C17.5791 4.54614 18.2528 5.06399 18.4904 5.78229H26.8019C27.0581 5.78229 27.2659 5.99017 27.2659 6.24631Z" fill="#59687D"/>
</g>
<defs>
<clipPath id="clip0_4503_10964">
<rect width="26" height="24.0381" fill="white" transform="translate(3.5 4.54614)"/>
</clipPath>
</defs>
</svg>
