<svg width="32" height="33" viewBox="0 0 32 33" fill="none" xmlns="http://www.w3.org/2000/svg">
<path d="M9.93688 13.1062C11.0153 13.1062 11.9657 13.6374 12.5481 14.4566C12.7529 14.7446 13.1529 14.8118 13.4409 14.607C13.7289 14.4022 13.7961 14.0022 13.5913 13.7142C12.7817 12.5718 11.4441 11.8262 9.93688 11.8262C9.58488 11.8262 9.29688 12.1142 9.29688 12.4662C9.29688 12.8214 9.58168 13.1062 9.93688 13.1062Z" fill="#59687D"/>
<path d="M18.8679 16.3062C18.8679 15.4198 19.2263 14.6262 19.8055 14.0438C20.3879 13.4646 21.1815 13.1062 22.0679 13.1062C22.4199 13.1062 22.7079 12.8182 22.7079 12.4662C22.7079 12.1142 22.4199 11.8262 22.0679 11.8262C19.5943 11.8262 17.5879 13.8326 17.5879 16.3062C17.5879 16.6582 17.8759 16.9462 18.2279 16.9462C18.5831 16.9462 18.8679 16.6614 18.8679 16.3062Z" fill="#59687D"/>
<path d="M25.9063 16.306H26.5463C26.5463 15.0964 26.0631 13.9956 25.2823 13.1924C24.5015 12.3892 23.4199 11.874 22.2199 11.8356L22.1975 12.4756L22.8375 12.5204C22.8471 12.3892 22.8599 12.2388 22.8599 12.0628C22.8599 8.45962 19.9383 5.54126 16.3383 5.54126C12.7351 5.54126 9.81668 8.46282 9.81668 12.0628C9.81668 12.2484 9.82948 12.4148 9.84229 12.562L10.4791 12.514L10.5687 11.8804C10.3735 11.8516 10.1623 11.8324 9.93508 11.8324C7.46148 11.8324 5.45508 13.8388 5.45508 16.3124C5.45508 18.786 7.46148 20.7924 9.93508 20.7924H22.0663C24.5399 20.7924 26.5463 18.786 26.5463 16.3124H25.9063H25.2663C25.2663 17.1988 24.9079 17.9957 24.3287 18.5749C23.7463 19.1541 22.9527 19.5124 22.0663 19.5124H9.93508C9.04868 19.5124 8.25188 19.1541 7.67268 18.5749C7.09348 17.9925 6.73508 17.1988 6.73508 16.3124C6.73508 15.426 7.09348 14.6324 7.67268 14.05C8.25508 13.4708 9.04868 13.1124 9.93508 13.1124C10.0791 13.1124 10.2295 13.1252 10.3895 13.1476C10.5815 13.1764 10.7735 13.1157 10.9175 12.9813C11.0615 12.8469 11.1319 12.6612 11.1191 12.466C11.1063 12.3156 11.0967 12.1812 11.0967 12.0628C11.0967 10.6132 11.6823 9.30764 12.6327 8.35724C13.5831 7.40684 14.8887 6.82126 16.3383 6.82126C17.7879 6.82126 19.0935 7.40684 20.0471 8.35724C20.9975 9.30764 21.5831 10.6132 21.5831 12.0628C21.5831 12.1684 21.5735 12.29 21.5639 12.434C21.5511 12.6068 21.6119 12.7764 21.7271 12.9076C21.8423 13.0356 22.0055 13.1124 22.1815 13.1188C23.0391 13.1476 23.8103 13.5124 24.3703 14.0884C24.9303 14.6644 25.2695 15.4452 25.2727 16.3124H25.9063V16.306Z" fill="#59687D"/>
<path d="M9.28285 23.0262L8.98526 24.143C8.89246 24.4854 9.09725 24.8343 9.43645 24.9271C9.77885 25.0199 10.1277 24.8151 10.2205 24.4759L10.518 23.3591C10.6108 23.0167 10.4061 22.6679 10.0669 22.5751C9.72446 22.4823 9.37565 22.6838 9.28285 23.0262Z" fill="#59687D"/>
<path d="M21.4176 23.0262L21.12 24.143C21.0272 24.4854 21.232 24.8343 21.5712 24.9271C21.9136 25.0199 22.2624 24.8151 22.3552 24.4759L22.6528 23.3591C22.7456 23.0167 22.5408 22.6679 22.2016 22.5751C21.8592 22.4823 21.5072 22.6838 21.4176 23.0262Z" fill="#59687D"/>
<path d="M15.7856 19.9508L12.7808 24.3636C12.6464 24.5588 12.6336 24.8148 12.7456 25.0228C12.8576 25.2308 13.0752 25.362 13.312 25.362H16.3488L14.5024 28.4372C14.32 28.7412 14.4192 29.1348 14.72 29.314C15.0208 29.4932 15.4176 29.3973 15.5968 29.0965L18.0288 25.0517C18.1472 24.8533 18.1504 24.6069 18.0384 24.4053C17.9264 24.2037 17.712 24.0788 17.4816 24.0788H14.5216L16.8448 20.6676C17.0432 20.3764 16.9696 19.9765 16.6752 19.7781C16.384 19.5829 15.984 19.6596 15.7856 19.9508Z" fill="#59687D"/>
<path d="M8.21059 27.0228L7.91299 28.1397C7.82019 28.4821 8.025 28.8308 8.3642 28.9236C8.7066 29.0164 9.05538 28.8116 9.14818 28.4724L9.4458 27.3556C9.5386 27.0132 9.33379 26.6645 8.99459 26.5717C8.65539 26.4789 8.30339 26.6804 8.21059 27.0228Z" fill="#59687D"/>
<path d="M20.3454 27.0228L20.0478 28.1397C19.955 28.4821 20.1598 28.8308 20.499 28.9236C20.8414 29.0164 21.1902 28.8116 21.283 28.4724L21.5806 27.3556C21.6734 27.0132 21.4686 26.6645 21.1294 26.5717C20.787 26.4789 20.4382 26.6804 20.3454 27.0228Z" fill="#59687D"/>
</svg>
