<svg width="32" height="32" viewBox="0 0 32 32" fill="none" xmlns="http://www.w3.org/2000/svg">
<path d="M25.4271 24.6307V24.0089H7.15237L10.0002 10.3791H21.8113L24.8177 24.7582L25.4271 24.6307V24.0089V24.6307L26.0365 24.5033L22.9275 9.62982C22.8684 9.34068 22.6134 9.1355 22.3181 9.1355H9.49657C9.20122 9.1355 8.94938 9.34068 8.8872 9.62982L5.7782 24.5033C5.74089 24.6867 5.78754 24.8764 5.90568 25.0225C6.02382 25.1686 6.20103 25.2525 6.38757 25.2525H25.4271C25.6136 25.2525 25.7908 25.1686 25.909 25.0225C26.0271 24.8764 26.0738 24.6867 26.0365 24.5033L25.4271 24.6307Z" fill="#59687D"/>
<path d="M13.0874 9.73877L11.8438 24.55L13.0811 24.6526L14.3247 9.84135" fill="#59687D"/>
<path d="M17.4922 9.84135L18.7358 24.6526L19.9732 24.55L18.7296 9.73877" fill="#59687D"/>
<path d="M24.4552 19.1934H7.25V20.437H24.4552" fill="#59687D"/>
<path d="M23.2059 13.6091H8.5625V14.8527H23.2059" fill="#59687D"/>
<path d="M18.2744 27.3665V26.7447H14.1674V25.2524H17.6526V27.3665H18.2744V26.7447V27.3665H18.8962V24.6306C18.8962 24.4658 18.8309 24.3073 18.7128 24.1922C18.5978 24.0772 18.4361 24.0088 18.2744 24.0088H13.5456C13.3809 24.0088 13.2223 24.0741 13.1073 24.1922C12.9922 24.3073 12.9238 24.4689 12.9238 24.6306V27.3665C12.9238 27.5313 12.9891 27.6899 13.1073 27.8049C13.2223 27.9199 13.384 27.9883 13.5456 27.9883H18.2744C18.4392 27.9883 18.5978 27.923 18.7128 27.8049C18.8278 27.6899 18.8962 27.5282 18.8962 27.3665H18.2744Z" fill="#59687D"/>
<path d="M20.2858 26.7449H11.5339C11.1919 26.7449 10.9121 27.0247 10.9121 27.3667C10.9121 27.7087 11.1919 27.9885 11.5339 27.9885H20.2858C20.6277 27.9885 20.9076 27.7087 20.9076 27.3667C20.9076 27.0247 20.6277 26.7449 20.2858 26.7449Z" fill="#59687D"/>
<path d="M27.2936 4.91043H26.9827C26.9827 5.2462 26.8459 5.54778 26.6252 5.77163C26.4044 5.99237 26.1029 6.12917 25.764 6.12917C25.4282 6.12917 25.1267 5.99237 24.9028 5.77163C24.6821 5.55089 24.5453 5.24931 24.5453 4.91043C24.5453 4.57466 24.6821 4.27308 24.9028 4.04923C25.1235 3.82849 25.4251 3.6917 25.764 3.6917C26.0998 3.6917 26.4013 3.82849 26.6252 4.04923C26.8459 4.26997 26.9827 4.57155 26.9827 4.91043H27.2936H27.6045C27.6045 3.89689 26.7807 3.073 25.7671 3.073C24.7505 3.073 23.9297 3.89689 23.9297 4.91043C23.9297 5.92707 24.7536 6.74786 25.7671 6.74786C26.7838 6.74786 27.6045 5.92396 27.6045 4.91043H27.2936Z" fill="#59687D"/>
<path d="M25.457 1.47789V2.34843C25.457 2.51942 25.5969 2.65933 25.7679 2.65933C25.9389 2.65933 26.0788 2.51942 26.0788 2.34843V1.47789C26.0788 1.3069 25.9389 1.16699 25.7679 1.16699C25.5969 1.16699 25.457 1.3069 25.457 1.47789Z" fill="#59687D"/>
<path d="M25.457 7.47228V8.34281C25.457 8.51381 25.5969 8.65371 25.7679 8.65371C25.9389 8.65371 26.0788 8.51381 26.0788 8.34281V7.47228C26.0788 7.30128 25.9389 7.16138 25.7679 7.16138C25.5969 7.16138 25.457 7.29817 25.457 7.47228Z" fill="#59687D"/>
<path d="M27.9721 2.26159L27.3566 2.87717C27.2353 2.99842 27.2353 3.1943 27.3566 3.31555C27.4778 3.4368 27.6737 3.4368 27.7949 3.31555L28.4105 2.69997C28.5318 2.57872 28.5318 2.38284 28.4105 2.26159C28.2924 2.14034 28.0934 2.14034 27.9721 2.26159Z" fill="#59687D"/>
<path d="M23.7339 6.49914L23.1183 7.11472C22.997 7.23597 22.997 7.43185 23.1183 7.5531C23.2395 7.67435 23.4354 7.67435 23.5566 7.5531L24.1722 6.93752C24.2935 6.81627 24.2935 6.62039 24.1722 6.49914C24.0541 6.37789 23.8551 6.37789 23.7339 6.49914Z" fill="#59687D"/>
<path d="M29.1951 4.59937H28.3246C28.1536 4.59937 28.0137 4.73927 28.0137 4.91027C28.0137 5.08126 28.1536 5.22117 28.3246 5.22117H29.1951C29.3661 5.22117 29.506 5.08126 29.506 4.91027C29.506 4.73927 29.3692 4.59937 29.1951 4.59937Z" fill="#59687D"/>
<path d="M23.2049 4.59937H22.3343C22.1633 4.59937 22.0234 4.73927 22.0234 4.91027C22.0234 5.08126 22.1633 5.22117 22.3343 5.22117H23.2049C23.3758 5.22117 23.5158 5.08126 23.5158 4.91027C23.5158 4.73927 23.3758 4.59937 23.2049 4.59937Z" fill="#59687D"/>
<path d="M28.4144 7.11472L27.7988 6.49914C27.6776 6.37789 27.4817 6.37789 27.3605 6.49914C27.2392 6.62039 27.2392 6.81627 27.3605 6.93752L27.976 7.5531C28.0973 7.67435 28.2932 7.67435 28.4144 7.5531C28.5357 7.43495 28.5357 7.23597 28.4144 7.11472Z" fill="#59687D"/>
<path d="M24.1761 2.87717L23.5605 2.26159C23.4393 2.14034 23.2434 2.14034 23.1222 2.26159C23.0009 2.38284 23.0009 2.57872 23.1222 2.69997L23.7378 3.31555C23.859 3.4368 24.0549 3.4368 24.1761 3.31555C24.2974 3.1943 24.2974 2.99842 24.1761 2.87717Z" fill="#59687D"/>
</svg>
